{"title":"Frenemies 2012 HDTV RiP XViD - INSPiRAL","uid":6997490,"size":808822426,"categoryP":"video","categoryS":"movies","magnet":"?xt=urn:btih:b5a0d02b4d323b06e1b7a86e759f79beb27a591d&amp;dn=Frenemies+2012+HDTV+RiP+XViD+-+INSPiRAL&amp;tr=udp%3A%2F%2Ftracker.openbittorrent.com%3A80&amp;tr=udp%3A%2F%2Fopen.demonii.com%3A1337&amp;tr=udp%3A%2F%2Ftracker.coppersurfer.tk%3A6969&amp;tr=udp%3A%2F%2Fexodus.desync.com%3A6969","seeders":1,"leechers":0,"uploader":"crazy-torrent","files":2,"time":1327937090,"description":" &lt;a href=&quot;http://www.scenespeeds.com/&quot; rel=&quot;nofollow&quot; target=&quot;_NEW&quot;&gt;http://www.scenespeeds.com/&lt;/a&gt;\n\n Description\n\nFrenemies 2012 HDTV RiP XViD - INSPiRAL\n\nIMDB:\n &lt;a href=&quot;\nhttp://www.imdb.com/title/tt1865368/&quot; rel=&quot;nofollow&quot; target=&quot;_NEW&quot;&gt;\nhttp://www.imdb.com/title/tt1865368/&lt;/a&gt;\n\nSOURCES:\n\nVIDEO - NEWGRP THANKS\nAUDIO - NEWGRP THANKS\nSUBS - None Add\n\nSTATS:\n\nVideo\nID: 0\nFormat: MPEG-4 Visual\nFormat profile: Advanced Simple@L5\nFormat settings, BVOP: 2\nFormat settings, QPel: No\nFormat settings, GMC: No warppoints\nFormat settings, Matrix: Default (MPEG)\nMuxing mode: Packed bitstream\nCodec ID: XVID\nCodec ID/Hint: XviD\nDuration: 1h 26mn\nBit rate: 1 116 Kbps\nWidth: 608 pixels\nHeight: 336 pixels\nDisplay aspect ratio: 16:9\nFrame rate: 23.976 fps\nColor space: YUV\nChroma subsampling: 4:2:0\nBit depth: 8 bits\nScan type: Progressive\nCompression mode: Lossy\nBits/(Pixel*Frame): 0.228\nStream size: 687 MiB (89%)\nWriting library: XviD 64\n\nAudio\nID: 1\nFormat: MPEG Audio\nFormat version: Version 1\nFormat profile: Layer 3\nCodec ID: 55\nCodec ID/Hint: MP3\nDuration: 1h 26mn\nBit rate mode: Constant\nBit rate: 128 Kbps\nChannel(s): 2 channels\nSampling rate: 48.0 KHz\nCompression mode: Lossy\nStream size: 78.8 MiB (10%)\nAlignment: Split accross interleaves\nInterleave, duration: 42 ms (1.00 video frame)\nInterleave, preload duration: 500 ms\n\nNOTES:\n\nRight source was pretty nice but had borders left still and also bad ivtc ...also seemed too bright\nAudio was nice and nothing could really improve it\nLoaded the avi file into vdub fixed the ivtc and still had bad interlace issues so have to use a blend aswell TWICE\nto remove all the issues.However this makes the source more blurry so had to add some sharpness back to it\nAlso lowered the brightness and increased the contrast....also changed the RGB colours slightly and increase the chroma\nAudio was just stripped and remuxed\nGot too say not the best Q ever but looks better on the tv,kids just watched it\nPs you can follow us on twitter and facebook @ ......not really,thats for all the dumbass :lol:\n     &lt;a href=&quot;\nhttp://www.scenespeeds.com/&quot; rel=&quot;nofollow&quot; target=&quot;_NEW&quot;&gt;\nhttp://www.scenespeeds.com/&lt;/a&gt;\n\t\t\t\t","torrent":{"xt":"urn:btih:b5a0d02b4d323b06e1b7a86e759f79beb27a591d","amp;dn":"Frenemies+2012+HDTV+RiP+XViD+-+INSPiRAL","amp;tr":["udp%3A%2F%2Ftracker.openbittorrent.com%3A80","udp%3A%2F%2Fopen.demonii.com%3A1337","udp%3A%2F%2Ftracker.coppersurfer.tk%3A6969","udp%3A%2F%2Fexodus.desync.com%3A6969"],"infoHash":"b5a0d02b4d323b06e1b7a86e759f79beb27a591d","infoHashBuffer":{"type":"Buffer","data":[181,160,208,43,77,50,59,6,225,183,168,110,117,159,121,190,178,122,89,29]},"announce":[],"urlList":[]}}